<svg width="338" height="100" viewBox="0 0 338 100" fill="none" xmlns="http://www.w3.org/2000/svg">
  <g clip-path="url(#clip0_7_2)">
  <path d="M325.493 100H11.825C8.68934 99.994 5.68393 98.7453 3.46739 96.5273C1.25084 94.3094 0.00396438 91.3032 0 88.1675L0 11.8175C0.00463313 8.68343 1.2522 5.67916 3.46903 3.46373C5.68586 1.24831 8.69093 0.00264472 11.825 0L325.493 0C332.008 0 337.5 5.3 337.5 11.815V88.165C337.5 94.68 332.008 100 325.493 100Z" fill="#A6A6A6"/>
  <path d="M335.08 88.17C335.08 89.4283 334.832 90.6742 334.35 91.8365C333.868 92.9989 333.162 94.0548 332.272 94.9441C331.382 95.8333 330.325 96.5384 329.162 97.019C327.999 97.4996 326.753 97.7463 325.495 97.745H11.82C9.27808 97.747 6.83943 96.7395 5.04016 94.944C3.24089 93.1484 2.22829 90.7119 2.22498 88.17V11.8125C2.22829 9.26859 3.24118 6.83 5.04117 5.03235C6.84116 3.23471 9.28106 2.225 11.825 2.225H325.492C330.792 2.225 335.077 6.525 335.077 11.8125L335.085 88.17H335.08Z" fill="black"/>
  <path d="M75.32 49.46C75.245 41.4025 81.92 37.485 82.22 37.3C78.445 31.7925 72.59 31.04 70.5325 30.98C65.615 30.4625 60.845 33.9225 58.34 33.9225C55.785 33.9225 51.9275 31.0225 47.77 31.11C42.42 31.1925 37.415 34.29 34.67 39.1C29.005 48.91 33.23 63.325 38.6575 71.25C41.3725 75.1325 44.545 79.4675 48.6975 79.315C52.755 79.1475 54.2725 76.725 59.1725 76.725C64.0325 76.725 65.4575 79.3175 69.6925 79.22C74.05 79.15 76.7925 75.32 79.4175 71.4025C82.5525 66.9525 83.8125 62.5775 83.8625 62.3525C83.7625 62.315 75.395 59.1275 75.3125 49.465L75.32 49.46ZM67.32 25.765C69.505 23.0325 71 19.315 70.585 15.54C67.4225 15.6825 63.4675 17.73 61.19 20.4025C59.175 22.7625 57.375 26.6225 57.84 30.2525C61.39 30.5175 65.04 28.46 67.32 25.77V25.765ZM134.112 78.76H128.437L125.325 68.985H114.515L111.552 78.76H106.027L116.74 45.49H123.355L134.12 78.76H134.112ZM124.387 64.885L121.575 56.2C121.275 55.3125 120.72 53.225 119.9 49.9325H119.8C119.47 51.3475 118.942 53.4375 118.217 56.2L115.455 64.8875L124.387 64.885ZM161.655 66.47C161.655 70.55 160.555 73.775 158.347 76.145C156.372 78.25 153.915 79.3025 150.987 79.3025C147.827 79.3025 145.557 78.1725 144.175 75.9025H144.075V88.54H138.75V62.6675C138.75 60.1025 138.682 57.4675 138.55 54.7675H143.24L143.54 58.5725H143.64C145.415 55.7025 148.115 54.2725 151.732 54.2725C154.562 54.2725 156.925 55.39 158.815 57.6275C160.71 59.8675 161.655 62.8125 161.655 66.465V66.47ZM156.225 66.665C156.225 64.33 155.7 62.405 154.645 60.89C153.495 59.31 151.945 58.52 150.005 58.52C148.69 58.52 147.495 58.96 146.43 59.8275C145.355 60.7025 144.655 61.8525 144.33 63.265C144.165 63.925 144.08 64.465 144.08 64.89V68.89C144.08 70.635 144.617 72.1075 145.687 73.31C146.757 74.5125 148.147 75.11 149.857 75.11C151.865 75.11 153.427 74.335 154.545 72.7925C155.665 71.2425 156.225 69.2025 156.225 66.665ZM189.25 66.47C189.25 70.55 188.145 73.775 185.937 76.145C183.962 78.25 181.512 79.3025 178.587 79.3025C175.425 79.3025 173.155 78.1725 171.775 75.9025H171.675V88.54H166.345V62.6675C166.345 60.1025 166.277 57.4675 166.145 54.7675H170.835L171.135 58.5725H171.235C173.01 55.7025 175.705 54.2725 179.327 54.2725C182.16 54.2725 184.522 55.39 186.417 57.6275C188.305 59.8675 189.252 62.8125 189.252 66.465L189.25 66.47ZM183.817 66.665C183.817 64.33 183.292 62.405 182.235 60.89C181.085 59.31 179.54 58.52 177.597 58.52C176.286 58.5184 175.015 58.9816 174.012 59.8275C172.942 60.7025 172.245 61.8525 171.917 63.265C171.752 63.925 171.667 64.465 171.667 64.89V68.89C171.667 70.635 172.202 72.1075 173.267 73.31C174.337 74.51 175.727 75.11 177.442 75.11C179.45 75.11 181.012 74.335 182.13 72.7925C183.25 71.2425 183.81 69.205 183.81 66.6675L183.817 66.665ZM220.1 69.43C220.1 72.26 219.115 74.5625 217.142 76.34C214.975 78.2825 211.957 79.2525 208.08 79.2525C204.5 79.2525 201.63 78.5675 199.455 77.185L200.692 72.7425C203.032 74.1575 205.6 74.8675 208.397 74.8675C210.397 74.8675 211.962 74.4125 213.085 73.5075C214.202 72.6075 214.76 71.39 214.76 69.875C214.76 68.525 214.3 67.385 213.377 66.4625C212.46 65.5375 210.927 64.6825 208.787 63.8875C202.962 61.7175 200.052 58.5375 200.052 54.35C200.052 51.615 201.072 49.375 203.115 47.625C205.15 45.88 207.865 45.0075 211.26 45.0075C214.285 45.0075 216.802 45.5375 218.81 46.59L217.477 50.935C215.602 49.9175 213.482 49.41 211.11 49.41C209.235 49.41 207.77 49.87 206.72 50.79C206.294 51.1664 205.954 51.6305 205.723 52.1504C205.493 52.6703 205.378 53.2339 205.385 53.8025C205.385 55.12 205.892 56.2025 206.91 57.0625C207.8 57.8525 209.41 58.7075 211.752 59.63C214.615 60.78 216.717 62.13 218.07 63.68C219.42 65.2175 220.095 67.145 220.095 69.445L220.1 69.43ZM237.72 58.77H231.845V70.42C231.845 73.38 232.88 74.86 234.955 74.86C235.905 74.86 236.697 74.7775 237.322 74.61L237.465 78.66C236.415 79.0525 235.032 79.25 233.32 79.25C231.212 79.25 229.57 78.6075 228.38 77.325C227.197 76.04 226.605 73.885 226.605 70.8575V58.765H223.105V54.765H226.605V50.375L231.837 48.7925V54.7675H237.712V58.7675L237.72 58.77ZM264.225 66.57C264.225 70.255 263.175 73.2825 261.067 75.65C258.86 78.0875 255.93 79.3 252.277 79.3C248.762 79.3 245.96 78.135 243.87 75.8C241.78 73.465 240.735 70.5175 240.735 66.965C240.735 63.2475 241.81 60.2025 243.967 57.835C246.117 55.465 249.025 54.28 252.677 54.28C256.195 54.28 259.027 55.4475 261.165 57.785C263.21 60.0525 264.23 62.98 264.23 66.5675L264.225 66.57ZM258.7 66.745C258.7 64.5275 258.225 62.63 257.267 61.045C256.15 59.13 254.552 58.17 252.482 58.17C250.34 58.17 248.712 59.1325 247.595 61.045C246.637 62.63 246.165 64.5575 246.165 66.8375C246.165 69.05 246.64 70.9475 247.595 72.5275C248.745 74.445 250.357 75.4025 252.435 75.4025C254.47 75.4025 256.067 74.4275 257.22 72.4775C258.202 70.8675 258.695 68.9525 258.695 66.74L258.7 66.745ZM281.55 59.4575C281.025 59.3575 280.462 59.3075 279.875 59.3075C278 59.3075 276.55 60.0175 275.525 61.4325C274.64 62.6825 274.195 64.265 274.195 66.1725V78.755H268.87L268.92 62.32C268.925 59.8019 268.858 57.2843 268.72 54.77H273.36L273.555 59.355H273.705C274.265 57.78 275.155 56.505 276.367 55.555C277.479 54.723 278.829 54.2723 280.217 54.27C280.712 54.27 281.157 54.3075 281.552 54.37V59.4525L281.55 59.4575ZM305.39 65.6325C305.39 66.5825 305.327 67.39 305.195 68.0475H289.205C289.267 70.4125 290.04 72.2225 291.525 73.4725C292.875 74.5925 294.615 75.1475 296.755 75.1475C299.122 75.1475 301.28 74.7725 303.225 74.0175L304.06 77.7175C301.79 78.705 299.11 79.1975 296.017 79.1975C292.297 79.1975 289.377 78.1025 287.252 75.915C285.137 73.725 284.077 70.79 284.077 67.1025C284.077 63.485 285.062 60.4725 287.04 58.07C289.11 55.5025 291.907 54.22 295.427 54.22C298.882 54.22 301.502 55.5025 303.277 58.07C304.685 60.105 305.392 62.625 305.392 65.62L305.39 65.6325ZM300.307 64.2475C300.342 62.6625 299.995 61.2975 299.272 60.1475C298.347 58.6625 296.927 57.9225 295.022 57.9225C293.277 57.9225 291.86 58.6475 290.777 60.0975C289.89 61.2475 289.362 62.63 289.202 64.24H300.302L300.307 64.2475ZM122.625 25.025C122.625 27.965 121.742 30.18 119.98 31.6675C118.347 33.0425 116.03 33.7275 113.022 33.7275C111.741 33.7401 110.459 33.6767 109.185 33.5375V17.4625C110.577 17.2375 112.077 17.12 113.697 17.12C116.562 17.12 118.722 17.745 120.172 18.9875C121.805 20.395 122.622 22.4075 122.622 25.0275L122.625 25.025ZM119.862 25.095C119.862 23.1875 119.357 21.725 118.347 20.705C117.332 19.6875 115.857 19.18 113.915 19.18C113.09 19.18 112.39 19.23 111.805 19.3475V31.565C112.13 31.615 112.717 31.64 113.575 31.64C115.582 31.64 117.125 31.08 118.22 29.965C119.315 28.85 119.857 27.225 119.857 25.09L119.862 25.095ZM137.275 27.595C137.275 29.405 136.755 30.895 135.72 32.055C134.635 33.255 133.195 33.85 131.402 33.85C129.677 33.85 128.302 33.275 127.272 32.125C126.247 30.98 125.735 29.5325 125.735 27.7875C125.735 25.9625 126.26 24.4625 127.322 23.3025C128.385 22.1425 129.807 21.5625 131.602 21.5625C133.327 21.5625 134.72 22.1375 135.772 23.2825C136.772 24.4 137.272 25.84 137.272 27.6L137.275 27.595ZM134.555 27.6775C134.555 26.595 134.32 25.6625 133.855 24.885C133.305 23.945 132.52 23.475 131.505 23.475C130.45 23.475 129.65 23.9425 129.1 24.8825C128.63 25.6575 128.4 26.6075 128.4 27.7275C128.4 28.8175 128.632 29.7525 129.1 30.5275C129.667 31.4675 130.457 31.9375 131.475 31.9375C132.475 31.9375 133.262 31.4625 133.825 30.5025C134.312 29.7075 134.555 28.7675 134.555 27.6775ZM156.912 21.8025L153.225 33.585H150.825L149.3 28.4675C148.91 27.1925 148.595 25.9175 148.35 24.66H148.3C148.075 25.955 147.76 27.2225 147.355 28.4675L145.73 33.585H143.305L139.837 21.8H142.53L143.862 27.4C144.187 28.725 144.45 29.9875 144.662 31.1825H144.712C144.905 30.1975 145.227 28.9425 145.682 27.425L147.357 21.8H149.49L151.09 27.305C151.48 28.6475 151.795 29.94 152.04 31.185H152.11C152.285 29.9725 152.555 28.68 152.91 27.305L154.34 21.8H156.915L156.912 21.8025ZM170.495 33.585H167.875V26.835C167.875 24.755 167.085 23.715 165.5 23.715C165.14 23.7046 164.783 23.7765 164.455 23.9251C164.127 24.0736 163.837 24.2951 163.607 24.5725C163.125 25.1475 162.882 25.8225 162.882 26.5925V33.5825H160.257V25.1675C160.257 24.1325 160.227 23.01 160.165 21.7925H162.465L162.59 23.6375H162.665C162.965 23.0625 163.422 22.5925 164.02 22.2125C164.734 21.7733 165.557 21.5445 166.395 21.5525C167.495 21.5525 168.41 21.9075 169.137 22.62C170.042 23.495 170.495 24.795 170.495 26.525V33.58V33.585ZM177.72 33.585H175.1V16.39H177.72V33.5825V33.585ZM193.145 27.595C193.145 29.4075 192.627 30.895 191.595 32.0575C190.507 33.2575 189.07 33.8525 187.275 33.8525C185.542 33.8525 184.165 33.2775 183.14 32.1275C182.115 30.9825 181.602 29.535 181.602 27.79C181.602 25.965 182.135 24.465 183.195 23.305C184.255 22.145 185.68 21.565 187.47 21.565C189.205 21.565 190.595 22.14 191.645 23.285C192.645 24.4025 193.15 25.8425 193.15 27.6025L193.145 27.595ZM190.425 27.68C190.425 26.5975 190.19 25.665 189.725 24.8875C189.175 23.9475 188.39 23.4775 187.375 23.4775C186.32 23.4775 185.52 23.945 184.975 24.885C184.5 25.66 184.27 26.61 184.27 27.73C184.27 28.82 184.505 29.755 184.97 30.53C185.54 31.47 186.33 31.94 187.35 31.94C188.35 31.94 189.132 31.465 189.7 30.505C190.185 29.71 190.425 28.77 190.425 27.68ZM205.825 33.5875H203.475L203.275 32.23H203.205C202.4 33.3125 201.255 33.855 199.762 33.855C198.65 33.855 197.75 33.4975 197.072 32.7875C196.767 32.4687 196.528 32.0923 196.369 31.6803C196.21 31.2683 196.135 30.8289 196.147 30.3875C196.147 28.9475 196.747 27.85 197.952 27.0875C199.157 26.33 200.852 25.9575 203.035 25.975V25.75C203.035 24.2 202.22 23.425 200.585 23.425C199.498 23.4037 198.429 23.7066 197.515 24.295L196.982 22.575C198.077 21.9 199.432 21.5575 201.025 21.5575C204.107 21.5575 205.65 23.1825 205.65 26.4325V30.7725C205.65 31.9475 205.71 32.8825 205.825 33.5775V33.5875ZM203.105 29.5375V27.72C200.215 27.67 198.77 28.4625 198.77 30.095C198.77 30.71 198.935 31.17 199.27 31.4775C199.625 31.7844 200.083 31.9468 200.552 31.9325C201.127 31.9325 201.67 31.75 202.16 31.3875C202.458 31.1794 202.7 30.9015 202.866 30.5781C203.031 30.2548 203.115 29.8958 203.11 29.5325L203.105 29.5375ZM220.712 33.5875H218.387L218.262 31.695H218.192C217.45 33.135 216.185 33.855 214.407 33.855C212.987 33.855 211.807 33.2975 210.867 32.18C209.927 31.0625 209.462 29.62 209.462 27.8425C209.462 25.935 209.97 24.3925 210.987 23.21C211.977 22.11 213.187 21.56 214.627 21.56C216.215 21.56 217.322 22.0925 217.952 23.16H218.002V16.39H220.627V30.4075C220.627 31.5575 220.652 32.6125 220.717 33.5825L220.712 33.5875ZM218 28.6125V26.6475C218 26.3025 217.975 26.0275 217.925 25.8225C217.786 25.2042 217.453 24.6464 216.975 24.23C216.492 23.8052 215.868 23.5761 215.225 23.5875C214.25 23.5875 213.482 23.975 212.92 24.7525C212.362 25.5275 212.08 26.5225 212.08 27.735C212.08 28.9 212.347 29.845 212.885 30.5725C213.452 31.3475 214.217 31.7375 215.175 31.7375C216.035 31.7375 216.725 31.4125 217.245 30.7675C217.75 30.1675 217.995 29.45 217.995 28.61L218 28.6125ZM243.12 27.5925C243.12 29.405 242.602 30.8925 241.57 32.055C240.482 33.255 239.045 33.85 237.25 33.85C235.525 33.85 234.145 33.275 233.115 32.125C232.09 30.98 231.577 29.5325 231.577 27.7875C231.577 25.9625 232.11 24.4625 233.17 23.3025C234.23 22.1425 235.655 21.5625 237.452 21.5625C239.177 21.5625 240.57 22.1375 241.62 23.2825C242.62 24.4 243.12 25.84 243.12 27.6V27.5925ZM240.405 27.6775C240.405 26.595 240.17 25.6625 239.705 24.885C239.15 23.945 238.37 23.475 237.35 23.475C236.3 23.475 235.5 23.9425 234.95 24.8825C234.475 25.6575 234.245 26.6075 234.245 27.7275C234.245 28.8175 234.48 29.7525 234.945 30.5275C235.515 31.4675 236.305 31.9375 237.325 31.9375C238.325 31.9375 239.112 31.4625 239.675 30.5025C240.16 29.7075 240.405 28.7675 240.405 27.6775ZM257.205 33.585H254.59V26.835C254.59 24.755 253.8 23.715 252.215 23.715C251.435 23.715 250.807 24 250.322 24.5725C249.837 25.145 249.59 25.8225 249.59 26.5925V33.5825H246.965V25.1675C246.965 24.1325 246.94 23.01 246.875 21.7925H249.175L249.3 23.6375H249.375C249.68 23.0625 250.135 22.5925 250.73 22.2125C251.442 21.775 252.235 21.5525 253.105 21.5525C254.205 21.5525 255.12 21.9075 255.847 22.62C256.752 23.495 257.202 24.795 257.202 26.525V33.58L257.205 33.585ZM274.84 23.76H271.955V29.485C271.955 30.9425 272.467 31.67 273.48 31.67C273.955 31.67 274.342 31.63 274.65 31.545L274.717 33.535C274.2 33.73 273.517 33.8275 272.682 33.8275C271.647 33.8275 270.842 33.5125 270.257 32.8825C269.675 32.2525 269.382 31.1925 269.382 29.7075V23.7575H267.662V21.8H269.387V19.6375L271.952 18.8625V21.795H274.842L274.84 23.76ZM288.71 33.585H286.085V26.885C286.085 24.7725 285.297 23.715 283.715 23.715C282.5 23.715 281.67 24.3275 281.215 25.5525C281.14 25.81 281.09 26.1275 281.09 26.495V33.5825H278.475V16.39H281.092V23.49H281.142C281.967 22.2 283.15 21.555 284.682 21.555C285.767 21.555 286.665 21.91 287.377 22.6225C288.27 23.505 288.715 24.8225 288.715 26.5725V33.5775L288.71 33.585ZM303.017 27.135C303.017 27.605 302.982 28 302.917 28.3225H295.062C295.097 29.4875 295.472 30.3725 296.2 30.99C296.865 31.54 297.725 31.815 298.775 31.815C299.859 31.8292 300.936 31.6401 301.95 31.2575L302.36 33.0775C301.242 33.5625 299.927 33.8025 298.405 33.8025C296.58 33.8025 295.142 33.2675 294.105 32.1925C293.055 31.1175 292.54 29.675 292.54 27.8675C292.54 26.0875 293.022 24.6075 293.995 23.4275C295.01 22.1675 296.382 21.5375 298.115 21.5375C299.81 21.5375 301.097 22.1675 301.965 23.4275C302.67 24.4275 303.017 25.665 303.017 27.135ZM300.517 26.46C300.537 25.68 300.367 25.01 300.01 24.445C299.555 23.72 298.86 23.3525 297.925 23.3525C297.517 23.3458 297.113 23.4396 296.749 23.6258C296.386 23.8119 296.073 24.0847 295.84 24.42C295.395 25.0128 295.127 25.719 295.065 26.4575H300.515L300.517 26.46Z" fill="white"/>
  </g>
  <defs>
  <clipPath id="clip0_7_2">
  <rect width="337.5" height="100" fill="white"/>
  </clipPath>
  </defs>
  </svg>
  