<svg width="299" height="100" viewBox="0 0 299 100" fill="none" xmlns="http://www.w3.org/2000/svg">
    <path d="M19.8068 99.0821C19.0338 99.0821 18.3092 99.0821 17.5362 99.0338C15.942 99.0338 14.3961 98.8889 12.8502 98.599C11.401 98.3575 10 97.8744 8.69566 97.1981C7.39131 96.5217 6.18358 95.6522 5.16908 94.5894C4.10628 93.5266 3.23672 92.3188 2.6087 91.0145C1.93237 89.6618 1.49759 88.2609 1.25604 86.7633C1.0145 85.1691 0.869567 83.5749 0.821258 81.9324C0.821258 81.401 0.772949 79.6135 0.772949 79.6135V20.3865C0.772949 20.3865 0.772948 18.599 0.821258 18.1159C0.821258 16.5217 0.966186 14.8792 1.25604 13.3333C1.49759 11.8357 1.93237 10.4348 2.6087 9.08211C3.96136 6.42511 6.08696 4.25119 8.69566 2.89854C10 2.22221 11.401 1.73912 12.8502 1.49757C14.3961 1.25603 15.9903 1.11109 17.5845 1.06279L19.8551 1.01448H278.551L280.87 1.06279C282.415 1.06279 284.01 1.20772 285.556 1.49757C287.005 1.73912 288.454 2.22221 289.758 2.89854C292.367 4.25119 294.493 6.42511 295.845 9.08211C296.522 10.4348 296.957 11.8357 297.198 13.3333C297.44 14.9275 297.585 16.57 297.633 18.1642C297.633 18.8889 297.633 19.6618 297.633 20.4348C297.633 21.401 297.633 22.3188 297.633 23.2367V76.9082C297.633 77.8261 297.633 78.744 297.633 79.6618C297.633 80.4831 297.633 81.256 297.633 82.029C297.585 83.6232 297.44 85.2174 297.198 86.7633C296.957 88.2609 296.522 89.7101 295.845 91.0628C295.169 92.3671 294.3 93.5749 293.285 94.6377C292.271 95.7005 291.063 96.57 289.758 97.2464C288.454 97.9227 287.005 98.4058 285.556 98.6473C284.01 98.8889 282.415 99.0338 280.87 99.0821C280.145 99.0821 279.372 99.1304 278.599 99.1304H275.845L19.8068 99.0821Z" fill="black"/>
    <path fill-rule="evenodd" clip-rule="evenodd" d="M59.4686 31.5942C59.5652 31.4493 59.6618 31.3526 59.8068 31.2077L64.3961 26.6183C65.8937 25.1208 68.3575 25.1208 69.9034 26.6183C71.401 28.1159 71.401 30.5797 69.9034 32.0773L65.942 35.9903C69.372 39.227 71.401 43.2367 72.2222 47.971C72.657 50.5797 71.8357 51.5942 68.9372 51.5942H26.8116C23.7198 51.6425 22.657 50.5314 23.1884 47.8261C24.058 43.4782 25.8454 39.7584 28.599 36.7633L24.1063 32.3188C22.6087 30.8212 22.6087 28.3575 24.1063 26.8599C25.6039 25.3623 28.0676 25.3623 29.6135 26.8599L34.2029 31.4493C34.3961 31.6425 34.5894 31.884 34.7343 32.1256C35.6039 31.6425 36.5701 31.2077 37.5362 30.8212C45.1208 27.8261 52.5121 28.1642 59.4686 31.5942ZM38.2609 42.8985C38.2609 43.9613 37.3913 44.8309 36.3285 44.8309C35.2657 44.8309 34.3961 43.9613 34.3961 42.8985C34.3961 41.8357 35.2657 40.9662 36.3285 40.9662C37.3913 40.9662 38.2609 41.8357 38.2609 42.8985ZM59.0338 44.8309C60.0966 44.8309 60.9662 43.9613 60.9662 42.8985C60.9662 41.8357 60.0966 40.9662 59.0338 40.9662C57.971 40.9662 57.1014 41.8357 57.1014 42.8985C57.1014 43.9613 57.971 44.8309 59.0338 44.8309Z" fill="#F28C45"/>
    <path d="M25.942 72.9468C26.9565 72.9468 27.4879 72.4154 27.8744 71.1111L28.5024 69.227H33.8164L34.3961 71.1111C34.7826 72.4154 35.3623 72.9468 36.3768 72.9468C37.4879 72.9468 38.2126 72.3188 38.2126 71.3043C38.2126 70.9179 38.116 70.4348 37.9227 69.8067L34.4445 59.6135C33.8164 57.7294 32.9469 57.0048 31.256 57.0048C29.5652 57.0048 28.6957 57.7778 28.0676 59.6135L24.5411 69.8067C24.2512 70.5797 24.1546 71.0145 24.1546 71.4009C24.1546 72.2705 24.8792 72.9468 25.942 72.9468ZM29.2754 66.4251L31.0628 60.4348H31.256L33.0435 66.4251H29.2754Z" fill="#F28C45"/>
    <path d="M43.1884 72.8985C44.3962 72.8985 45.1208 72.1256 45.1208 70.8212V67.7295H47.6812C51.3044 67.7295 53.5266 65.7971 53.5266 62.3671C53.5266 59.1304 51.3527 57.0048 47.8744 57.0048H43.8165C41.9807 57.0048 41.3044 57.7294 41.3044 59.6135V70.8212C41.3044 72.1739 41.9807 72.8985 43.1884 72.8985ZM45.1208 64.9275V60H47.2947C48.8406 60 49.7102 60.9179 49.7102 62.4637C49.7102 64.2995 48.8406 64.9275 46.8599 64.9275H45.1208Z" fill="#F28C45"/>
    <path d="M67.6328 72.8985C68.744 72.8985 69.4686 72.1739 69.4686 71.1111C69.4686 70.5797 69.2753 70.1932 68.6956 69.372L64.7343 64.058L68.4541 60.0483C68.9855 59.5169 69.1304 59.1304 69.1304 58.6473C69.1304 57.7294 68.4058 56.9565 67.4396 56.9565C66.9082 56.9565 66.4734 57.1981 65.942 57.7778L60.628 63.5266H60.3865V58.9855C60.3865 57.6811 59.7101 56.9082 58.4541 56.9082C57.2464 56.9082 56.5217 57.6328 56.5217 58.9855V70.8696C56.5217 72.1739 57.2464 72.9468 58.5024 72.9468C59.7101 72.9468 60.3865 72.2222 60.3865 70.8696V67.9227L61.8357 66.4251L65.7005 71.6908C66.3285 72.5121 66.9082 72.8985 67.6328 72.8985Z" fill="#F28C45"/>
    <path d="M83.5749 23.7681V37.7778H88.6474C90.9179 37.7778 92.657 37.1497 93.8164 35.8937C94.9276 34.686 95.5073 32.9469 95.5073 30.7729C95.5073 28.5507 94.9759 26.8599 93.8647 25.6522C92.657 24.3961 90.9662 23.7681 88.6957 23.7681H83.5749ZM85.7488 25.6038H88.3575C90.1449 25.6038 91.4493 26.0386 92.2705 26.8599C93.0435 27.6811 93.4783 28.9855 93.4783 30.7729C93.4783 32.5604 93.0435 33.8164 92.2705 34.686C91.4493 35.5072 90.0966 35.942 88.3575 35.942H85.7971V25.6038H85.7488ZM102.222 27.343C100.676 27.343 99.4203 27.8744 98.5024 28.8889C97.5845 29.9034 97.1015 31.1594 97.1015 32.7053C97.1015 34.2512 97.5362 35.5072 98.4541 36.4734C99.4203 37.4879 100.628 38.0193 102.174 38.0193C103.72 38.0193 104.976 37.4879 105.894 36.4734C106.812 35.5072 107.246 34.2029 107.246 32.7053C107.246 31.1594 106.763 29.9034 105.845 28.8889C105.024 27.8744 103.768 27.343 102.222 27.343ZM102.222 29.0821C103.188 29.0821 103.961 29.4686 104.493 30.2415C104.976 30.8696 105.217 31.7391 105.217 32.7536C105.217 33.7681 104.976 34.5894 104.493 35.2657C103.961 35.9903 103.188 36.4251 102.222 36.4251C101.256 36.4251 100.483 36.0386 99.9517 35.2657C99.4686 34.6377 99.2754 33.8164 99.2754 32.7536C99.2754 31.7391 99.4686 30.8696 99.9517 30.2415C100.531 29.4203 101.256 29.0821 102.222 29.0821ZM108.213 27.6328L111.691 37.7778H113.623L115.749 30.1932L117.874 37.7778H119.807L123.285 27.6328H120.966L118.792 35.314L116.715 27.6328H114.783L112.705 35.314L110.531 27.6328H108.213ZM129.71 27.343C129.082 27.343 128.502 27.4396 127.971 27.7295C127.44 27.971 127.005 28.3575 126.618 28.8889V27.6328H124.541V37.7778H126.618V31.6908C126.715 30.8696 127.005 30.2415 127.488 29.7584C127.923 29.3237 128.454 29.1304 129.034 29.1304C130.628 29.1304 131.401 30 131.401 31.7391V37.8261H133.478V31.5459C133.527 28.7439 132.271 27.343 129.71 27.343ZM136.184 23.4782V37.7778H138.261V23.4782H136.184ZM145.556 27.343C144.01 27.343 142.754 27.8744 141.836 28.8889C140.918 29.9034 140.435 31.1594 140.435 32.7053C140.435 34.2512 140.87 35.5072 141.787 36.4734C142.754 37.4879 143.961 38.0193 145.507 38.0193C147.053 38.0193 148.309 37.4879 149.227 36.4734C150.145 35.5072 150.58 34.2029 150.58 32.7053C150.58 31.1594 150.097 29.9034 149.179 28.8889C148.357 27.8744 147.101 27.343 145.556 27.343ZM145.556 29.0821C146.522 29.0821 147.295 29.4686 147.826 30.2415C148.309 30.8696 148.551 31.7391 148.551 32.7536C148.551 33.7681 148.309 34.5894 147.826 35.2657C147.295 35.9903 146.522 36.4251 145.556 36.4251C144.589 36.4251 143.816 36.0386 143.285 35.2657C142.802 34.6377 142.609 33.8164 142.609 32.7536C142.609 31.7391 142.802 30.8696 143.285 30.2415C143.865 29.4203 144.589 29.0821 145.556 29.0821ZM157.246 27.343C155.99 27.343 154.976 27.5362 154.203 28.0193C153.333 28.5507 152.802 29.372 152.56 30.4348L154.638 30.628C154.734 30.0483 155.072 29.6618 155.507 29.372C155.894 29.1304 156.425 29.0338 157.101 29.0338C158.647 29.0338 159.42 29.7584 159.42 31.1594V31.5942L157.15 31.6425C155.652 31.6908 154.444 31.9807 153.623 32.5604C152.705 33.1884 152.271 34.0579 152.271 35.1691C152.271 35.9903 152.609 36.715 153.237 37.2464C153.816 37.7778 154.638 38.0676 155.7 38.0676C156.618 38.0676 157.391 37.8744 158.068 37.5845C158.647 37.2947 159.13 36.8599 159.565 36.3768V37.8261H161.498V31.3526C161.498 30.0966 161.159 29.1787 160.58 28.5507C159.855 27.7295 158.744 27.343 157.246 27.343ZM159.42 33.0918V33.6715C159.42 34.4444 159.082 35.1208 158.454 35.6522C157.826 36.1836 157.053 36.4734 156.184 36.4734C155.652 36.4734 155.217 36.3285 154.879 36.0869C154.541 35.8454 154.396 35.5072 154.396 35.1208C154.396 33.8647 155.362 33.1884 157.246 33.1401L159.42 33.0918ZM171.208 23.4782V29.1304C170.386 27.9227 169.324 27.343 168.068 27.343C166.618 27.343 165.459 27.8744 164.589 28.9372C163.816 29.9034 163.43 31.1594 163.43 32.657C163.43 34.2029 163.816 35.4589 164.638 36.4734C165.507 37.5362 166.667 38.0676 168.164 38.0676C169.565 38.0676 170.628 37.5362 171.304 36.57V37.7778H173.237V23.4782H171.208ZM168.599 29.0338C169.372 29.0338 170 29.3237 170.531 29.9517C171.063 30.628 171.304 31.4976 171.304 32.6087V32.8019C171.304 33.8164 171.111 34.6377 170.676 35.314C170.145 36.0386 169.469 36.3768 168.551 36.3768C167.536 36.3768 166.763 35.9903 166.28 35.2657C165.845 34.6377 165.652 33.7681 165.652 32.657C165.652 31.5459 165.845 30.6763 166.28 30.0966C166.763 29.372 167.536 29.0338 168.599 29.0338Z" fill="#FAFAFA"/>
    <path d="M88.116 65.1208L89.3237 61.3043C90.1933 58.6473 90.9662 56.1836 91.7392 53.3816H91.8841C92.7054 56.1353 93.43 58.6473 94.2996 61.3043L95.5073 65.1208H88.116ZM98.5024 74.541H101.304L93.2851 51.2077H90.3865L82.3672 74.541H85.0242L87.4397 67.1981H96.1836L98.5024 74.541ZM104.493 74.541H107.101V61.9324C108.889 60.0966 110.193 59.1304 112.029 59.1304C114.444 59.1304 115.459 60.5797 115.459 63.913V74.541H118.068V63.6232C118.068 59.227 116.377 56.9082 112.754 56.9082C110.387 56.9082 108.599 58.2609 106.908 59.8551H106.812L106.57 57.343H104.444V74.541H104.493ZM129.758 74.9758C131.884 74.9758 133.72 73.8647 135.121 72.5121H135.169L135.411 74.5894H137.536V49.227H134.928V55.9903L135.072 58.9855C133.478 57.7295 132.174 56.9565 130.097 56.9565C126.135 56.9565 122.56 60.4831 122.56 66.0386C122.609 71.7391 125.411 74.9758 129.758 74.9758ZM130.29 72.8019C127.101 72.8019 125.314 70.2415 125.314 65.9903C125.314 61.9807 127.585 59.1304 130.531 59.1304C132.029 59.1304 133.382 59.6618 134.976 61.0628V70.3865C133.478 71.9324 131.981 72.8019 130.29 72.8019ZM143.672 74.541H146.28V63.3333C147.488 60.3382 149.275 59.2754 150.725 59.2754C151.401 59.2754 151.787 59.372 152.367 59.5652L152.899 57.2947C152.319 57.0048 151.787 56.9082 151.063 56.9082C149.082 56.9082 147.343 58.3575 146.135 60.5314H146.039L145.797 57.3913H143.672V74.541ZM162.077 74.9758C166.329 74.9758 170.048 71.6425 170.048 65.9903C170.048 60.2415 166.28 56.9082 162.077 56.9082C157.874 56.9082 154.106 60.2415 154.106 65.9903C154.106 71.6425 157.826 74.9758 162.077 74.9758ZM162.077 72.8019C158.986 72.8019 156.812 70.0483 156.812 65.9903C156.812 61.884 158.937 59.0821 162.077 59.0821C165.217 59.0821 167.391 61.8357 167.391 65.9903C167.391 70.0483 165.217 72.8019 162.077 72.8019ZM174.783 74.541H177.391V57.343H174.783V74.541ZM176.087 53.6715C177.101 53.6715 177.971 52.9468 177.971 51.9324C177.971 50.8212 177.101 50.1449 176.087 50.1449C174.976 50.1449 174.203 50.8212 174.203 51.9324C174.203 52.8985 174.976 53.6715 176.087 53.6715ZM189.227 74.9758C191.353 74.9758 193.188 73.8647 194.589 72.5121H194.638L194.879 74.5894H197.005V49.227H194.396V55.9903L194.541 58.9855C192.947 57.7295 191.643 56.9565 189.565 56.9565C185.604 56.9565 182.029 60.4831 182.029 66.0386C182.077 71.7391 184.879 74.9758 189.227 74.9758ZM189.758 72.8019C186.57 72.8019 184.783 70.2415 184.783 65.9903C184.783 61.9807 187.053 59.1304 190 59.1304C191.498 59.1304 192.85 59.6618 194.444 61.0628V70.3865C192.899 71.9324 191.449 72.8019 189.758 72.8019ZM213.14 65.1208L214.348 61.3043C215.217 58.6473 215.99 56.1836 216.763 53.3816H216.908C217.729 56.1353 218.454 58.6473 219.324 61.3043L220.531 65.1208H213.14ZM223.527 74.541H226.329L218.309 51.2077H215.411L207.391 74.541H210.048L212.464 67.1981H221.208L223.527 74.541ZM229.758 74.541H232.415V65.1208H236.377C241.546 65.1208 244.976 62.8019 244.976 57.971C244.976 52.9468 241.546 51.2077 236.232 51.2077H229.71V74.541H229.758ZM232.415 62.9468V53.3333H235.894C240.193 53.3333 242.367 54.4444 242.367 57.971C242.367 61.4493 240.338 62.9468 236.039 62.9468H232.415ZM249.855 74.541H252.512V67.0048L256.715 62.0773L263.913 74.4927H266.908L258.454 60L265.845 51.1594H262.802L252.657 63.1884H252.609V51.2077H249.952V74.541H249.855Z" fill="#FAFAFA"/>
    </svg>
    